<svg xmlns="http://www.w3.org/2000/svg" xmlns:xlink="http://www.w3.org/1999/xlink" width="175.613" height="170.16" viewBox="0 0 175.613 170.16">
  <defs>
    <filter id="Path_1993" x="0" y="0" width="175.613" height="170.16" filterUnits="userSpaceOnUse">
      <feOffset dy="6" input="SourceAlpha"/>
      <feGaussianBlur stdDeviation="10" result="blur"/>
      <feFlood flood-opacity="0.349"/>
      <feComposite operator="in" in2="blur"/>
      <feComposite in="SourceGraphic"/>
    </filter>
  </defs>
  <g id="icon_line" transform="translate(30 24)">
    <g transform="matrix(1, 0, 0, 1, -30, -24)" filter="url(#Path_1993)">
      <path id="Path_1993-2" data-name="Path 1993" d="M573.97,364.418c0-25.868-25.931-46.912-57.807-46.912s-57.806,21.044-57.806,46.912c0,23.189,20.565,42.612,48.344,46.282,1.881.408,4.446,1.241,5.091,2.851a11.865,11.865,0,0,1,.188,5.226s-.679,4.079-.824,4.95c-.253,1.461-1.162,5.714,5.007,3.116s33.292-19.6,45.419-33.563h0c8.378-9.186,12.391-18.509,12.391-28.862" transform="translate(-428.36 -293.51)" fill="#00b900"/>
    </g>
    <path id="Path_1994" data-name="Path 1994" d="M494.435,343.515H490.38a1.125,1.125,0,0,0-1.126,1.123v25.188a1.125,1.125,0,0,0,1.126,1.123h4.055a1.124,1.124,0,0,0,1.126-1.123V344.638a1.124,1.124,0,0,0-1.126-1.123" transform="translate(-448.374 -309.103)" fill="#fff"/>
    <path id="Path_1995" data-name="Path 1995" d="M519.842,343.515h-4.055a1.121,1.121,0,0,0-1.123,1.123V359.6l-11.545-15.589a1.3,1.3,0,0,0-.086-.114l-.008-.009c-.022-.024-.046-.046-.069-.067l-.02-.021c-.02-.015-.04-.033-.062-.049a.117.117,0,0,0-.028-.023l-.058-.041-.034-.018c-.02-.013-.04-.025-.059-.036l-.036-.016a.3.3,0,0,0-.065-.026.2.2,0,0,0-.037-.015.685.685,0,0,0-.067-.021.145.145,0,0,0-.038-.011c-.021-.005-.041-.011-.065-.015l-.046-.007a.472.472,0,0,0-.06-.007l-.058,0h-4.094A1.127,1.127,0,0,0,497,344.638v25.188a1.127,1.127,0,0,0,1.127,1.123h4.054a1.125,1.125,0,0,0,1.127-1.123V354.868l11.556,15.607a1.1,1.1,0,0,0,.287.278l.011.008c.023.015.046.03.069.042l.034.017a.378.378,0,0,0,.052.028.478.478,0,0,0,.057.021l.03.013.078.027.017,0a1.132,1.132,0,0,0,.287.037h4.055a1.124,1.124,0,0,0,1.126-1.123V344.638a1.124,1.124,0,0,0-1.126-1.123" transform="translate(-445.872 -309.103)" fill="#fff"/>
    <path id="Path_1996" data-name="Path 1996" d="M490.013,364.642H478.995v-20a1.123,1.123,0,0,0-1.125-1.123h-4.057a1.123,1.123,0,0,0-1.125,1.123v25.188a1.11,1.11,0,0,0,.316.777.137.137,0,0,0,.014.02l.016.015a1.12,1.12,0,0,0,.778.315h16.2a1.126,1.126,0,0,0,1.125-1.129v-4.053a1.126,1.126,0,0,0-1.125-1.129" transform="translate(-453.727 -309.103)" fill="#fff"/>
    <path id="Path_1997" data-name="Path 1997" d="M535.417,349.822a1.125,1.125,0,0,0,1.125-1.126v-4.055a1.123,1.123,0,0,0-1.125-1.126h-16.2a1.121,1.121,0,0,0-.78.318l-.012.012-.018.019a1.125,1.125,0,0,0-.312.775v25.188a1.11,1.11,0,0,0,.315.777.075.075,0,0,0,.016.02.09.09,0,0,0,.017.013,1.121,1.121,0,0,0,.775.316h16.2a1.126,1.126,0,0,0,1.125-1.129v-4.053a1.125,1.125,0,0,0-1.125-1.129H524.4v-4.256h11.016a1.123,1.123,0,0,0,1.125-1.126v-4.054a1.124,1.124,0,0,0-1.125-1.127H524.4v-4.256Z" transform="translate(-439.056 -309.103)" fill="#fff"/>
  </g>
</svg>
