<svg xmlns="http://www.w3.org/2000/svg" xmlns:xlink="http://www.w3.org/1999/xlink" width="792" height="792" viewBox="0 0 792 792">
  <defs>
    <linearGradient id="linear-gradient" x1="0.5" x2="0.5" y2="1" gradientUnits="objectBoundingBox">
      <stop offset="0" stop-color="#6af0e9"/>
      <stop offset="1" stop-color="#6ca5d8"/>
    </linearGradient>
    <linearGradient id="linear-gradient-2" x1="0.5" x2="0.5" y2="1" gradientUnits="objectBoundingBox">
      <stop offset="0" stop-color="#73d0f2"/>
      <stop offset="1" stop-color="#6ca5d8"/>
    </linearGradient>
    <filter id="Ellipse_79" x="0" y="0" width="792" height="792" filterUnits="userSpaceOnUse">
      <feOffset dx="10" dy="10" input="SourceAlpha"/>
      <feGaussianBlur stdDeviation="25" result="blur"/>
      <feFlood flood-opacity="0.431"/>
      <feComposite operator="in" in2="blur"/>
      <feComposite in="SourceGraphic"/>
    </filter>
    <clipPath id="clip-path">
      <circle id="Ellipse_96" data-name="Ellipse 96" cx="321" cy="321" r="321" transform="translate(74 724)" fill="url(#linear-gradient)"/>
    </clipPath>
    <linearGradient id="linear-gradient-3" x1="0.5" x2="0.5" y2="1" gradientUnits="objectBoundingBox">
      <stop offset="0" stop-color="#43a858"/>
      <stop offset="1" stop-color="#257896"/>
    </linearGradient>
  </defs>
  <g id="img_earth" transform="translate(-9 -659)">
    <g transform="matrix(1, 0, 0, 1, 9, 659)" filter="url(#Ellipse_79)">
      <circle id="Ellipse_79-2" data-name="Ellipse 79" cx="321" cy="321" r="321" transform="translate(65 65)" fill="url(#linear-gradient-2)"/>
    </g>
    <g id="Mask_Group_1" data-name="Mask Group 1" opacity="0.74" clip-path="url(#clip-path)">
      <g id="Group_16152" data-name="Group 16152">
        <path id="Path_1982" data-name="Path 1982" d="M12714.546,1932.5s6.254-86.061-32.629-99.657-74.37,14.412-64.309-30.862,34.4-48.945,46.226-56.151,29.1-4.487,64.444,0,77.9-14.547,37.116-24.472-56.15-11.692-75.184-7.206-49.083-18.218-26.377-36.3,51.666-40.652,71.651-41.6,53.569-20.937,77.089-42.691,6.39-54.383,67.024-62.541,84.3.816,88.784,0,23.52,35.349,32.63,54.383,16.312,44.322,14.545,59.822-28.145,19.985-25.424,44.458,19.987,14.412,0,56.151-25.29,63.357-36.168,70.7,14.417,36.3,22.572,36.3-45.276-24.472-69.747-36.3-27.055-27.327-47.993-14.548-31.677-36.3-46.224,0-19.036,31.814-30.865,59.006-33.581,14.276-29.911,38.884,0,23.521-16.312,32.63S12714.546,1932.5,12714.546,1932.5Z" transform="translate(-12325.325 -705.718)" fill="url(#linear-gradient-3)"/>
        <path id="Path_1983" data-name="Path 1983" d="M12614.374,1665.416s-7.207-46.09-10.877-77.9-16.312-31.814-16.312-31.814-1.77-16.315,39.019-26.24,59.687-9.109,71.514,0,31.952,45.409,16.452,58.054-49.082,32.63-67.165,45.274S12614.374,1665.416,12614.374,1665.416Z" transform="translate(-12346.565 -709.6)" fill="url(#linear-gradient-3)"/>
        <path id="Path_1984" data-name="Path 1984" d="M12497.609,1744.595s54.781,52.533,69.748,55.751,7.885-11.343-4.907-22.043-29.442-23.974-17.135-33.708,26.868-7.642,38.133-3.3-.163,14.078,33.706-16.009,42.961-48.349,51.006-49.959,12.31-44.488-11.265-39.661-20.435,27.835-39.741,30.57-29.929-13.918-33.706-30.57-3.7-33.869,17.7-32.743,31.615,9.171,42.879,11.826,28.4-8.528,24.136-20.353-11.265-27.835-24.136-30.57-8.607-7.562-23.088-7-31.616,11.262-33.225,15.044-12.794,2.655-20.354,0-8.045-19.87-11.825-20.916-10.139,3.218-18.746,20.916c-3.855,7.929-42.325,26.7-50.346,63.8C12476.718,1680.635,12497.609,1744.595,12497.609,1744.595Z" transform="translate(-12422.996 -688.523)" fill="url(#linear-gradient-3)"/>
        <path id="Path_1985" data-name="Path 1985" d="M12575.091,1865.74s-16.149-40.472-12.809-65.6.864-29.7-5.323-34.654-18.192-16.957-15.283-32.18,13.121-35.088,20.606-35.892,20.979-1.98,27.229,3.342,6.62,12.253,24.381,19.741,3.713,5.384,34.653,15.718,28.9,12.748,19.8,23.082-9.469,15.656-19.8,23.516-17.269,16.894-24.319,22.278-13.181,11.572-16.522,21.474-9.1,23.021-12.811,28.838-5.011,15.781-5.382,21.1-4.89,10.21-7.366,7.364S12575.091,1865.74,12575.091,1865.74Z" transform="translate(-12380.554 -580.582)" fill="url(#linear-gradient-3)"/>
        <path id="Path_1986" data-name="Path 1986" d="M12807.854,1814.675s-7.34-21.753,7.205-46.225,38.887-26.376,50.715-32.63,30.994-12.644,20.936,0-38.068,51.664-49.895,58.054-16.316,20.8-16.316,20.8Z" transform="translate(-12184.676 -557.036)" fill="url(#linear-gradient-3)"/>
      </g>
    </g>
    <path id="Subtraction_9" data-name="Subtraction 9" d="M-11541,846a321.259,321.259,0,0,1-92.143-13.422,319.49,319.49,0,0,1-81.676-37.667,322.587,322.587,0,0,1-67.31-58.015,321.323,321.323,0,0,1-49.048-74.466A377.444,377.444,0,0,0-11666,700c207.11,0,374.383-162.057,380.812-368.939a319.709,319.709,0,0,1,47.935,89.849A320.428,320.428,0,0,1-11220,525a323.4,323.4,0,0,1-6.521,64.693,319.443,319.443,0,0,1-18.7,60.255,321.09,321.09,0,0,1-29.6,54.526,323.334,323.334,0,0,1-39.2,47.507,323.331,323.331,0,0,1-47.507,39.2,321.058,321.058,0,0,1-54.527,29.6,319.365,319.365,0,0,1-60.255,18.7A323.37,323.37,0,0,1-11541,846Z" transform="translate(11936 519)" opacity="0.09"/>
  </g>
</svg>
