<svg xmlns="http://www.w3.org/2000/svg" xmlns:xlink="http://www.w3.org/1999/xlink" width="365.474" height="505.307" viewBox="0 0 365.474 505.307">
  <defs>
    <linearGradient id="linear-gradient" x1="0.5" y1="1" x2="0.5" gradientUnits="objectBoundingBox">
      <stop offset="0" stop-color="#fff"/>
      <stop offset="1" stop-color="#e4e4e4"/>
    </linearGradient>
    <linearGradient id="linear-gradient-2" x1="0.848" y1="0.129" x2="0.032" y2="0.5" xlink:href="#linear-gradient"/>
    <linearGradient id="linear-gradient-3" x1="0.5" x2="0.5" y2="1" gradientUnits="objectBoundingBox">
      <stop offset="0" stop-color="#5cd4eb"/>
      <stop offset="1" stop-color="#c49cf1"/>
    </linearGradient>
    <linearGradient id="linear-gradient-4" x1="0.5" y1="1" x2="0.5" gradientUnits="objectBoundingBox">
      <stop offset="0" stop-color="#7addec"/>
      <stop offset="1" stop-color="#b48ff5"/>
    </linearGradient>
  </defs>
  <g id="img_astro" transform="translate(-350.04 -4655.722)">
    <path id="Union_5" data-name="Union 5" d="M-11696.482,2229.058c-8.019-.843-36.1-13.021-42.444-21.754s-10.071-10.968-4.592-27.509a37.709,37.709,0,0,1,6.627-11.5l1.63-72.1c-2.249-2.133-4.422-4.115-6.407-5.884a120.578,120.578,0,0,1-28.838-2.943c-1.362-.3-2.7-.6-4.01-.9a187.24,187.24,0,0,1-1.815,27.866,16.265,16.265,0,0,1,1.071,1.474l-1.23-.458c-2.271,14.072-6.923,26.553-16.006,30.375-24.1,10.141-57.924,14.061-57.924,14.061a47.552,47.552,0,0,1,2.187,5.439,19.291,19.291,0,0,1,2.023,1.836c4.595,4.927.762,12.357.762,12.357s-.022.162-.265.278c-.1,4.9-1.407,9.87-5.078,13.8-11.225,12-23.438.478-29.334-5.022s-21-32.125-20.807-42.916c.044-2.473-.008-4.591.059-6.505-1.363.656-.687-.182.043-.93.355-5.927,2.281-10.028,12.788-17.295,6.65-4.6,15.52-6.176,24.547-7.484l31.545-16.5c-.855-.77-.9-1.684-.6-3.054.681-3.035,1.487-4.184,3.833-4.45.457-7.806-.428-17.147-1.7-25.717-11.1-9.205-14.763-19.7-14.763-31.39,0-4.784.116-10.592.494-17.032-5.381-2.273-10.055-4.282-12.141-5.266-6.475-3.051-11.416-11.622-10.131-34.724.876-15.713,6.531-31.23,10.059-39.549-.769-.684-1.486-1.338-2.145-1.957-14.042-13.215-21.2-17.24-27.451-37.559s3.672-32.821,22.429-31.258,24.85,36.236,64.939,55.537c4.07,1.961,8.236,3.72,12.457,5.3a86.547,86.547,0,0,1-7.578-6.73,86.207,86.207,0,0,1-10.439-12.656l-.138-.206q-.6.118-1.222.194c-9.5,1.167-18.533-5.563-22.86-15.976a26.047,26.047,0,0,1-3.181-9.743,25.19,25.19,0,0,1,2.033-13.73c2.009-6.328,5.9-11.44,10.961-14.15a85.677,85.677,0,0,1,1.541-11.424,85.253,85.253,0,0,1,4.98-16.047,85.528,85.528,0,0,1,7.885-14.524,86.023,86.023,0,0,1,10.439-12.653,86.211,86.211,0,0,1,12.656-10.442,85.345,85.345,0,0,1,14.523-7.882,84.876,84.876,0,0,1,16.045-4.984,86.328,86.328,0,0,1,17.233-1.736,86.292,86.292,0,0,1,17.233,1.736,84.9,84.9,0,0,1,16.047,4.984,85.345,85.345,0,0,1,14.523,7.882,86.16,86.16,0,0,1,12.656,10.442,86.023,86.023,0,0,1,10.439,12.653,85.391,85.391,0,0,1,7.885,14.524,85.11,85.11,0,0,1,4.98,16.047,86.065,86.065,0,0,1,1.736,17.233,86.087,86.087,0,0,1-1.736,17.234,85.011,85.011,0,0,1-4.98,16.044q-.231.549-.473,1.1.71-1.014,1.393-2c9.454-13.6,27.037-23.367,36.962-17.192s13.52,15.629-5.234,47.981-52.594,38.527-52.594,38.527l-4.518.544a76.952,76.952,0,0,0-7.738,24.291c-3.058,20.692-4.062,32.521-2.592,49.3l.02,0,.276,3.294c1.426,15.98,2.3,28.729,2.3,28.729s-.176.257-.535.711l.186-.042s6,6.507,13.215,15.928a8.442,8.442,0,0,1,1.082-.087c2.945,0,3.788,1.115,4.481,5.178a5.666,5.666,0,0,1,.021,2.5c11.943,16.943,23.886,38.966,16.528,51.615-13.148,22.605-37.8,46.089-37.8,46.089s.7.346,1.827,1.008a18.555,18.555,0,0,1,2.425-.186c6.734,0,9.555,7.873,9.555,7.873s.332.406-.654,1.23c4.181,4.514,7.563,10.383,6.836,17.223-1.272,11.948-10.541,14.168-18.566,14.168A74.092,74.092,0,0,1-11696.482,2229.058Z" transform="translate(12275.699 2906.694)" fill="rgba(0,0,0,0.53)" opacity="0.18"/>
    <g id="img_astro-2" data-name="img_astro" transform="translate(420.001 4699.472)">
      <path id="Path_1965" data-name="Path 1965" d="M20462.479-733.1s-11.619,22.678-12.906,45.779,3.656,31.674,10.131,34.726,37.918,16,37.918,16l6.752-94.331Z" transform="translate(-20414.539 892)" fill="#fff" stroke="#707070" stroke-width="5"/>
      <path id="Union_2" data-name="Union 2" d="M61.064,14.17c-1.738,16.34,19.989,27.146,19.989,27.146S56.4,64.8,43.254,87.405s35.328,75.134,35.328,75.134l.184-.043c-.358.457-.533.712-.533.712s.965,14.14,2.527,31.3.574,29.03-2.527,50.017a77.008,77.008,0,0,1-7.739,24.292l-4.517.544s-33.837,6.173-52.593,38.526S-1.78,349.7,8.147,355.87s27.508-3.595,36.963-17.192S68.162,306.4,84.261,298.041c6.218-3.229,17.452-5.184,31.205-5.256,20.251,5.369,43.169,10.224,61.831,10.934,4.357,1.614,8.657,3.424,12.853,5.444,40.09,19.3,46.188,53.974,64.941,55.537s28.68-10.94,22.428-31.259-13.41-24.343-27.453-37.559c-5.879-5.533-16.455-13.808-26.764-21.56,11.253-26.2,12.9-58.891,12.9-76.969,0-11.689-3.66-22.184-14.761-31.388-2.506-16.924-3.513-36.862,4.353-42.024,14.322-9.4,38.948-5.272,53.277-15.184s12.7-13.936,12.889-24.728-14.909-37.417-20.8-42.918-18.112-17.025-29.334-5.02-.373,33.708-.373,33.708-33.821,3.92-57.923,14.061c-15.3,6.439-18.029,37.461-17.979,59.255q-1.972-.453-4.01-.9a120.4,120.4,0,0,0-28.838-2.945c-13.493-12.016-35.633-33.953-31.567-45.3,5.781-16.126,27.933-27.651,33.414-44.189s1.753-18.772-4.59-27.507S95.531,1.371,87.511.526A74.115,74.115,0,0,0,79.63,0C71.6,0,62.335,2.22,61.064,14.17Z" transform="translate(293.014 459.057) rotate(180)" stroke="#707070" stroke-width="5" fill="url(#linear-gradient)"/>
      <path id="Path_1969" data-name="Path 1969" d="M20363.824-561.649s15.4,18.461,10.672,33.9-45.031,54.991-47.166,65.2-2.846,8.074-2.846,8.074-2.846-13.517,16.824-37.7,26.918-30.563,27.383-42.408-10.309-27.06-10.309-27.06l5.441-1.672Z" transform="translate(-20160.539 892)" fill="#8459a9"/>
      <path id="Path_1970" data-name="Path 1970" d="M10.016,86.328s-13.328-15.3-9.234-28.1S39.746,12.655,41.594,4.193s1.5-1.5,1.5-1.5S46.518,8.7,29.5,28.751,6.447,53.682,6.047,63.5s8.678,22.83,8.678,22.83l-4.709,1.386Z" transform="translate(30.672 399.058) rotate(-135)" fill="#8459a9"/>
      <path id="Path_1971" data-name="Path 1971" d="M20346.926-465.566s-2.82-7.872-9.557-7.872-23.678,5.914-23.973,9.976,3.916,9.113,8.125,9.534,20.877-8.124,23.424-9.534S20346.926-465.566,20346.926-465.566Z" transform="translate(-20121.156 892)" fill="#f2d2bd" stroke="#707070" stroke-width="5"/>
      <path id="Path_1972" data-name="Path 1972" d="M.053,11.654s2.82,7.872,9.557,7.872,23.678-5.914,23.973-9.976S29.666.436,25.457.015,4.58,8.139,2.033,9.549.053,11.654.053,11.654Z" transform="translate(48.049 416.877) rotate(-133)" fill="#f2d2bd" stroke="#707070" stroke-width="5"/>
      <path id="Path_1973" data-name="Path 1973" d="M20375.018-620.695l12.123-115.922h-4.9l-12.346,115.922Z" transform="translate(-20217.828 892)" fill="#ff4557"/>
      <g id="Path_1987" data-name="Path 1987" transform="translate(80.202)" fill="url(#linear-gradient-2)">
        <path d="M 88 173.5 C 82.19731140136719 173.5 76.39897918701172 172.9155426025391 70.76612091064453 171.7629089355469 C 65.27768707275391 170.6398162841797 59.87909698486328 168.9640045166016 54.72031021118164 166.7820281982422 C 49.65461730957031 164.639404296875 44.76856994628906 161.9873352050781 40.19787979125977 158.8994293212891 C 35.66997528076172 155.8404235839844 31.41204833984375 152.3273162841797 27.54238128662109 148.4576416015625 C 23.67269134521484 144.5879516601563 20.15957069396973 140.3300170898438 17.10057067871094 135.8021240234375 C 14.01269054412842 131.2314300537109 11.360595703125 126.3453826904297 9.218000411987305 121.2796936035156 C 7.035999774932861 116.1209030151367 5.360190391540527 110.7223129272461 4.237095355987549 105.2338790893555 C 3.084452390670776 99.60102081298828 2.5 93.80268859863281 2.5 88 C 2.5 82.19731140136719 3.084452390670776 76.39897918701172 4.237095355987549 70.76612091064453 C 5.360190391540527 65.27768707275391 7.035999774932861 59.87909698486328 9.218000411987305 54.72031021118164 C 11.360595703125 49.65461730957031 14.01269054412842 44.76856994628906 17.10057067871094 40.19787979125977 C 20.15957069396973 35.66997528076172 23.67269134521484 31.41204833984375 27.54238128662109 27.54238128662109 C 31.41204833984375 23.67269134521484 35.66997528076172 20.15957069396973 40.19787979125977 17.10057067871094 C 44.76856994628906 14.01269054412842 49.65461730957031 11.360595703125 54.72031021118164 9.218000411987305 C 59.87909698486328 7.035999774932861 65.27768707275391 5.360190391540527 70.76612091064453 4.237095355987549 C 76.39897918701172 3.084452390670776 82.19731140136719 2.5 88 2.5 C 93.80268859863281 2.5 99.60102081298828 3.084452390670776 105.2338790893555 4.237095355987549 C 110.7223129272461 5.360190391540527 116.1209030151367 7.035999774932861 121.2796936035156 9.218000411987305 C 126.3453826904297 11.360595703125 131.2314300537109 14.01269054412842 135.8021240234375 17.10057067871094 C 140.3300170898438 20.15957069396973 144.5879516601563 23.67269134521484 148.4576416015625 27.54238128662109 C 152.3273162841797 31.41204833984375 155.8404235839844 35.66997528076172 158.8994293212891 40.19787979125977 C 161.9873352050781 44.76856994628906 164.639404296875 49.65461730957031 166.7820281982422 54.72031021118164 C 168.9640045166016 59.87909698486328 170.6398162841797 65.27768707275391 171.7629089355469 70.76612091064453 C 172.9155426025391 76.39897918701172 173.5 82.19731140136719 173.5 88 C 173.5 93.80268859863281 172.9155426025391 99.60102081298828 171.7629089355469 105.2338790893555 C 170.6398162841797 110.7223129272461 168.9640045166016 116.1209030151367 166.7820281982422 121.2796936035156 C 164.639404296875 126.3453826904297 161.9873352050781 131.2314300537109 158.8994293212891 135.8021240234375 C 155.8404235839844 140.3300170898438 152.3273162841797 144.5879516601563 148.4576416015625 148.4576416015625 C 144.5879516601563 152.3273162841797 140.3300170898438 155.8404235839844 135.8021240234375 158.8994293212891 C 131.2314300537109 161.9873352050781 126.3453826904297 164.639404296875 121.2796936035156 166.7820281982422 C 116.1209030151367 168.9640045166016 110.7223129272461 170.6398162841797 105.2338790893555 171.7629089355469 C 99.60102081298828 172.9155426025391 93.80268859863281 173.5 88 173.5 Z" stroke="none"/>
        <path d="M 88 5 C 82.36528778076172 5 76.73560333251953 5.567367553710938 71.26731872558594 6.68634033203125 C 65.9405517578125 7.776336669921875 60.70099639892578 9.402786254882813 55.69418334960938 11.52049255371094 C 50.77718353271484 13.60020446777344 46.03434753417969 16.17460632324219 41.59739685058594 19.17213439941406 C 37.20133972167969 22.14205932617188 33.06729125976563 25.552978515625 29.31013488769531 29.31013488769531 C 25.552978515625 33.06729125976563 22.14205932617188 37.20133972167969 19.17213439941406 41.59739685058594 C 16.17460632324219 46.03434753417969 13.60020446777344 50.77718353271484 11.52049255371094 55.69418334960938 C 9.402786254882813 60.70099639892578 7.776336669921875 65.9405517578125 6.68634033203125 71.26731872558594 C 5.567367553710938 76.73560333251953 5 82.36528778076172 5 88 C 5 93.63471221923828 5.567367553710938 99.26439666748047 6.68634033203125 104.7326812744141 C 7.776336669921875 110.0594482421875 9.402786254882813 115.2989959716797 11.52049255371094 120.3058166503906 C 13.60020446777344 125.2228164672852 16.17460632324219 129.9656524658203 19.17213439941406 134.4026031494141 C 22.14205932617188 138.7986602783203 25.552978515625 142.9327087402344 29.31013488769531 146.6898651123047 C 33.06729125976563 150.447021484375 37.20133972167969 153.8579406738281 41.59739685058594 156.8278656005859 C 46.03434753417969 159.8253936767578 50.77718353271484 162.3997955322266 55.69418334960938 164.4794921875 C 60.70099639892578 166.5972137451172 65.9405517578125 168.2236633300781 71.26731872558594 169.3136596679688 C 76.73560333251953 170.4326324462891 82.36528778076172 171 88 171 C 93.63471221923828 171 99.26439666748047 170.4326324462891 104.7326812744141 169.3136596679688 C 110.0594482421875 168.2236633300781 115.2989959716797 166.5972137451172 120.3058166503906 164.4794921875 C 125.2228164672852 162.3997955322266 129.9656524658203 159.8253936767578 134.4026031494141 156.8278656005859 C 138.7986602783203 153.8579406738281 142.9327087402344 150.447021484375 146.6898651123047 146.6898651123047 C 150.447021484375 142.9327087402344 153.8579406738281 138.7986602783203 156.8278656005859 134.4026031494141 C 159.8253936767578 129.9656524658203 162.3997955322266 125.2228164672852 164.4794921875 120.3058166503906 C 166.5972137451172 115.2989959716797 168.2236633300781 110.0594482421875 169.3136596679688 104.7326812744141 C 170.4326324462891 99.26439666748047 171 93.63471221923828 171 88 C 171 82.36528778076172 170.4326324462891 76.73560333251953 169.3136596679688 71.26731872558594 C 168.2236633300781 65.9405517578125 166.5972137451172 60.70099639892578 164.4794921875 55.69418334960938 C 162.3997955322266 50.77718353271484 159.8253936767578 46.03434753417969 156.8278656005859 41.59739685058594 C 153.8579406738281 37.20133972167969 150.447021484375 33.06729125976563 146.6898651123047 29.31013488769531 C 142.9327087402344 25.552978515625 138.7986602783203 22.14205932617188 134.4026031494141 19.17213439941406 C 129.9656524658203 16.17460632324219 125.2228164672852 13.60020446777344 120.3058166503906 11.52049255371094 C 115.2989959716797 9.402786254882813 110.0594482421875 7.776336669921875 104.7326812744141 6.68634033203125 C 99.26439666748047 5.567367553710938 93.63471221923828 5 88 5 M 88 0 C 136.6010437011719 0 176 39.39894104003906 176 88 C 176 136.6010437011719 136.6010437011719 176 88 176 C 39.39894104003906 176 0 136.6010437011719 0 88 C 0 39.39894104003906 39.39894104003906 0 88 0 Z" stroke="none" fill="#707070"/>
      </g>
      <g id="Ellipse_78" data-name="Ellipse 78" transform="translate(97.202 19)" stroke="#707070" stroke-width="5" fill="url(#linear-gradient-3)">
        <circle cx="77" cy="77" r="77" stroke="none"/>
        <circle cx="77" cy="77" r="74.5" fill="none"/>
      </g>
      <g id="Ellipse_77" data-name="Ellipse 77" transform="translate(120.566 135.287) rotate(173)" fill="#fff" stroke="#707070" stroke-width="5">
        <ellipse cx="24.5" cy="30.5" rx="24.5" ry="30.5" stroke="none"/>
        <ellipse cx="24.5" cy="30.5" rx="22" ry="28" fill="none"/>
      </g>
      <g id="Ellipse_76" data-name="Ellipse 76" transform="translate(109.056 129.445) rotate(173)" stroke="#707070" stroke-width="5" fill="url(#linear-gradient-4)">
        <ellipse cx="19.5" cy="24" rx="19.5" ry="24" stroke="none"/>
        <ellipse cx="19.5" cy="24" rx="17" ry="21.5" fill="none"/>
      </g>
      <path id="Path_1974" data-name="Path 1974" d="M20367.742-795.316c2.086-13.062.9-29-11.684-43.04a53.8,53.8,0,0,0-45.037-17.511c-14.8,1.45-16.062,3.119-7.5,4.378s35,4.763,47.2,22.274,11.189,27.113,11.545,38.633S20365.656-782.254,20367.742-795.316Z" transform="translate(-20132.563 894.544)" fill="#fff"/>
      <path id="Path_1975" data-name="Path 1975" d="M20312.715-739.25a129.19,129.19,0,0,1-10.275,13.471c-5.219,6-12.215,12.7-19.334,15.835-15.082,6.64-19.652,6.64-19.652,6.64" transform="translate(-20036.965 887)" fill="none" stroke="rgba(0,0,0,0.06)" stroke-linecap="round" stroke-width="11"/>
      <path id="Path_1978" data-name="Path 1978" d="M20249.248-757.617s38.156,39.389,31.932,46.542c-5.219,6-33.928,41.753-33.928,41.753" transform="translate(-20082.398 1077.656)" fill="none" stroke="rgba(0,0,0,0.06)" stroke-linecap="round" stroke-width="11"/>
      <path id="Path_1976" data-name="Path 1976" d="M0,46.408A155.2,155.2,0,0,1,12.389,29.273c.48-.552,2.188-2.992,3.186-4.027C23.1,17.448,42.865,0,42.865,0" transform="translate(22.856 176) rotate(-90)" fill="none" stroke="rgba(0,0,0,0.06)" stroke-linecap="round" stroke-width="11"/>
      <path id="Path_1980" data-name="Path 1980" d="M0,40.49A136.281,136.281,0,0,1,9.754,25.54c.377-.481,1.721-2.611,2.508-3.514C18.186,15.223,33.748,0,33.748,0" transform="matrix(0.891, -0.454, 0.454, 0.891, 35.618, 202.068)" fill="none" stroke="rgba(0,0,0,0.06)" stroke-linecap="round" stroke-width="16"/>
      <path id="Path_1998" data-name="Path 1998" d="M-20.281,84.488S-13.7,62.2-5.562,46.583A96.264,96.264,0,0,1,12.262,22.027c5.924-6.8,22.676-23.151,22.676-23.151" transform="matrix(0.891, -0.454, 0.454, 0.891, 50.769, 202.966)" fill="none" stroke="rgba(0,0,0,0.06)" stroke-linecap="round" stroke-width="16"/>
      <path id="Path_1977" data-name="Path 1977" d="M8.119,83.342S-3.068,58.635.822,37.963,20.182,0,20.182,0" transform="translate(111.151 179.607) rotate(-90)" fill="none" stroke="rgba(0,0,0,0.06)" stroke-linecap="round" stroke-width="11"/>
      <path id="Path_1979" data-name="Path 1979" d="M20515.609-569.828s5.2,17.287-9.033,20.844-43.646,5.94-46.242,8.074" transform="translate(-20437.664 892)" fill="none" stroke="rgba(0,0,0,0.06)" stroke-width="11"/>
      <path id="Path_1966" data-name="Path 1966" d="M20481.609-628.174s-41.521,7.408-75.205,3.815-79.617-24.627-79.617-24.627l-.262,6.6s37.656,18.741,79.879,24.183,75.67-4.418,75.67-4.418Z" transform="translate(-20269.398 892)" fill="#578fbe"/>
      <path id="Path_1967" data-name="Path 1967" d="M20305.844-549.208s28.748-14.144,39-17.385,11.639-3.81,10.945-7.872-1.535-5.178-4.482-5.178-14.73,3.073-27.93,12.06S20305.844-549.208,20305.844-549.208Z" transform="translate(-20122.578 892)" fill="#ff4557"/>
      <path id="Path_1968" data-name="Path 1968" d="M20363.3-553.106s-32.975-12.332-44.732-15.158-13.35-3.322-12.555-6.863,1.762-4.514,5.141-4.514,16.9,2.679,32.035,10.515S20363.3-553.106,20363.3-553.106Z" transform="translate(-20236.582 898.387)" fill="#ff4557"/>
    </g>
  </g>
</svg>
