<svg xmlns="http://www.w3.org/2000/svg" xmlns:xlink="http://www.w3.org/1999/xlink" width="3840" height="832.553" viewBox="0 0 3840 832.553">
  <defs>
    <linearGradient id="linear-gradient" x1="0.5" x2="0.5" y2="1" gradientUnits="objectBoundingBox">
      <stop offset="0" stop-color="#eb7920"/>
      <stop offset="1" stop-color="#763d10" stop-opacity="0"/>
    </linearGradient>
  </defs>
  <g id="img_wave" transform="translate(-4446 2531.553)">
    <path id="Union_5" data-name="Union 5" d="M3012.765,797.376c-29.737-1.419-60.145-3.548-90.381-6.329-28.514-2.623-57.846-5.914-87.179-9.784-27.345-3.606-55.707-7.849-84.3-12.611-110.615-18.422-214.386-42.716-314.738-66.209h0c-176.082-41.222-342.4-80.157-516.165-80.157V58.072c26.809,0,55.493.83,87.693,2.536,28.7,1.522,57.4,3.579,85.165,5.569l.059,0c25.423,1.822,51.711,3.706,77.75,5.158l5.874.328c22.078,1.233,44.908,2.509,67.1,3.446,24.849,1.049,46.361,1.56,65.767,1.56,37.907,0,70.594-1.952,99.924-5.966,23.854-3.265,47.445-8.193,70.259-12.959l.014,0h.008c21.106-4.41,42.932-8.968,65.477-12.359,12.155-1.827,23.49-3.169,34.657-4.1,12.553-1.05,24.561-1.561,36.708-1.561,7.828,0,15.75.223,23.546.662,16.719.941,35.817,3.039,58.385,6.412,20.113,3.007,41.04,6.723,61.279,10.317l.006,0c23.781,4.223,48.371,8.59,71.672,11.806,12.544,1.732,23.73,3,34.2,3.887,11.752.992,22.312,1.474,32.281,1.474,8.313,0,16.223-.352,23.51-1.047a203.975,203.975,0,0,0,31.566-5.529,233.961,233.961,0,0,0,28.365-9.29c18.031-7.144,34.542-15.908,50.507-24.384,12.537-6.655,24.378-12.941,36.689-18.371,6.61-2.916,12.735-5.309,18.72-7.315A153.372,153.372,0,0,1,3123.127.753c5.487-.5,11.258-.753,17.149-.753,6.689,0,13.762.327,21.021.972,6.936.616,14.273,1.543,21.808,2.754,13.972,2.247,28.891,5.484,45.61,9.893,14.1,3.719,29.69,8.34,47.655,14.126,16.188,5.214,32.4,10.745,48.964,16.427l4.019,1.379,1.719.591c77.762,26.688,158.172,54.285,242.262,56.782,4.249.126,8.6.191,12.943.191,10,0,20.431-.34,30.994-1.012,10.065-.64,20.59-1.6,31.282-2.859,19.726-2.321,40.421-5.658,63.267-10.206,42.46-8.451,86.038-19.9,128.181-30.967V353.1c-.04.068-4,7.049-11.823,19.187-7.175,11.14-19.117,28.959-35.26,50.583-18.144,24.3-37.787,48.366-58.385,71.514a1073.23,1073.23,0,0,1-81.2,81.98c-71.609,64.815-148.851,116.458-229.583,153.494-23.337,10.707-47.281,20.316-71.166,28.563a759.255,759.255,0,0,1-76.595,22.021c-13.309,3.074-26.875,5.816-40.322,8.149-13.756,2.387-27.774,4.414-41.664,6.023-14.2,1.646-28.668,2.9-43,3.733-14.644.85-29.56,1.282-44.334,1.282C3075.637,799.625,3044.045,798.868,3012.765,797.376ZM689,798.344c-14.333-.832-28.8-2.088-43-3.733-13.89-1.609-27.908-3.636-41.664-6.023-13.447-2.333-27.013-5.075-40.322-8.149a759.284,759.284,0,0,1-76.595-22.021c-23.885-8.246-47.828-17.856-71.165-28.562-80.732-37.036-157.975-88.68-229.583-153.494a1073.2,1073.2,0,0,1-81.2-81.98c-20.6-23.148-40.242-47.209-58.386-71.514C30.94,401.241,19,383.422,11.823,372.282,4,360.144.04,353.164,0,353.1V58.072C42.143,69.142,85.72,80.589,128.181,89.039c22.846,4.547,43.541,7.885,63.267,10.206,10.692,1.258,21.217,2.219,31.282,2.859,10.563.671,20.992,1.012,30.994,1.012,4.34,0,8.694-.065,12.943-.191,84.09-2.5,164.5-30.094,242.262-56.783l1.719-.59,4.019-1.379c16.566-5.682,32.776-11.214,48.964-16.427,17.965-5.787,33.553-10.407,47.655-14.127C628,9.21,642.923,5.974,656.895,3.727,664.43,2.515,671.767,1.588,678.7.972,685.961.327,693.034,0,699.722,0c5.892,0,11.663.253,17.15.753a153.241,153.241,0,0,1,35.946,7.593c5.986,2.005,12.109,4.4,18.72,7.314,12.311,5.431,24.153,11.717,36.69,18.372,15.966,8.476,32.476,17.24,50.507,24.384a233.974,233.974,0,0,0,28.365,9.29,203.841,203.841,0,0,0,31.566,5.528c7.287.7,15.2,1.048,23.51,1.048,9.969,0,20.528-.482,32.281-1.474,10.47-.884,21.658-2.155,34.2-3.887,23.3-3.217,47.892-7.583,71.672-11.807h.006c20.239-3.594,41.166-7.31,61.279-10.317,22.567-3.373,41.665-5.471,58.385-6.413,7.8-.438,15.718-.661,23.546-.661,12.147,0,24.154.511,36.708,1.56,11.167.935,22.5,2.276,34.656,4.1,22.546,3.389,44.371,7.949,65.478,12.359h.008l.013,0c22.814,4.766,46.4,9.694,70.259,12.959,29.331,4.015,62.017,5.966,99.925,5.966,19.405,0,40.917-.511,65.767-1.561,22.193-.937,45.023-2.213,67.1-3.445l5.874-.328c26.039-1.452,52.327-3.336,77.75-5.158l.059,0c27.76-1.99,56.466-4.048,85.165-5.569,32.2-1.707,60.885-2.536,87.693-2.536V622.285c-173.766,0-340.083,38.936-516.165,80.158h0c-100.353,23.493-204.123,47.787-314.738,66.209-28.59,4.762-56.953,9-84.3,12.611-29.333,3.869-58.665,7.16-87.179,9.784-30.236,2.78-60.645,4.91-90.381,6.329-31.279,1.492-62.872,2.248-93.9,2.248C718.558,799.625,703.642,799.194,689,798.344Z" transform="translate(4446 -2531.553)" opacity="0.46" fill="url(#linear-gradient)"/>
    <path id="Union_4" data-name="Union 4" d="M1920,785.863h0V72.406c49.833,0,99.65-19.14,147.827-37.65,21.878-8.406,42.542-16.346,63.276-22.641,11.147-3.385,21.218-5.957,30.789-7.863A201.834,201.834,0,0,1,2192,.406C2197.687.137,2203.466,0,2209.174,0c35.817,0,72.2,5.245,111.233,16.034,16.824,4.651,34.137,10.312,52.924,17.305,15.839,5.9,32.363,12.59,52,21.066,7.859,3.391,15.835,6.906,23.548,10.3l.087.038c13.259,5.843,26.969,11.885,40.424,17.451,15.064,6.231,28.212,11.2,40.2,15.177a320.973,320.973,0,0,0,39.925,10.713c6.767,1.318,13.446,2.326,19.85,3a190.641,190.641,0,0,0,19.767,1.06,167.372,167.372,0,0,0,17.472-.9,155.068,155.068,0,0,0,17.4-2.837,180.971,180.971,0,0,0,24.825-7.549c7.767-2.938,15.835-6.472,24.666-10.8,16.388-8.039,32.886-17.631,48.842-26.906l.007,0c18.187-10.573,36.993-21.505,55.272-29.88a213.882,213.882,0,0,1,27.3-10.526A128.732,128.732,0,0,1,2852,17.406c2.883-.232,5.838-.35,8.781-.35a129.123,129.123,0,0,1,26.865,2.958,202.006,202.006,0,0,1,27.176,7.928c18.311,6.628,37.055,15.607,56.9,25.115,15.788,7.563,32.114,15.384,49.4,22.591A403.021,403.021,0,0,0,3076,94.406a403.76,403.76,0,0,0,43.867,8.55c14.243,2.029,29.469,3.6,46.546,4.8,31.689,2.223,64.853,2.782,96.929,3.324h.006c19.971.336,40.621.685,60.4,1.436,22.145.84,40.981,2.114,57.585,3.893,18.51,1.984,37.879,4.978,59.213,9.152,18.851,3.689,36.883,7.821,54.323,11.818l.01,0,.016,0c20.989,4.809,40.813,9.352,60.28,12.735,10.431,1.813,19.875,3.14,28.873,4.056a277.887,277.887,0,0,0,28.378,1.518c3.9,0,7.793-.1,11.573-.285a239.193,239.193,0,0,0,27.241-2.988c8.79-1.466,17.922-3.466,27.145-5.942a405.708,405.708,0,0,0,54.055-19.061c16.127-6.879,33.736-15.323,53.835-25.816,17.973-9.384,36.147-19.454,53.724-29.193l0,234c-.231.317-5.761,7.894-16.184,20.6-9.813,11.963-26.129,31.1-48.128,54.314-24.729,26.1-51.454,51.933-79.431,76.788a1365.513,1365.513,0,0,1-110.092,88.026c-96.929,69.594-201.095,125.046-309.6,164.814-31.365,11.5-63.518,21.814-95.563,30.668-16.657,4.6-33.631,8.9-50.45,12.788-17.238,3.98-34.806,7.633-52.217,10.857-17.827,3.3-35.986,6.245-53.974,8.75-18.406,2.563-37.152,4.74-55.719,6.467-18.988,1.767-38.319,3.117-57.456,4.009-19.559.914-39.47,1.375-59.181,1.375Zm0,0h0Zm-932,0c-19.711,0-39.622-.462-59.181-1.375-19.136-.892-38.468-2.242-57.456-4.009-18.566-1.728-37.313-3.9-55.719-6.467-17.988-2.5-36.147-5.449-53.974-8.75-17.41-3.225-34.979-6.877-52.217-10.857-16.82-3.883-33.794-8.186-50.45-12.788-32.045-8.855-64.2-19.173-95.563-30.668-108.509-39.769-212.675-95.221-309.6-164.814a1365.541,1365.541,0,0,1-110.092-88.026c-27.978-24.855-54.7-50.69-79.431-76.788C42.315,358.1,26,338.97,16.186,327.007,5.763,314.3.233,306.726,0,306.409l0-234C17.577,82.144,35.751,92.215,53.724,101.6c20.1,10.493,37.708,18.937,53.835,25.816a405.666,405.666,0,0,0,54.056,19.061c9.222,2.477,18.354,4.476,27.144,5.942A239.194,239.194,0,0,0,216,155.406c3.78.189,7.673.285,11.573.285a277.889,277.889,0,0,0,28.378-1.518c9-.916,18.442-2.244,28.873-4.056,19.468-3.384,39.292-7.927,60.28-12.735l.016,0,.01,0c17.439-4,35.471-8.129,54.324-11.818,21.334-4.175,40.7-7.168,59.212-9.152,16.6-1.779,35.44-3.053,57.585-3.893,19.779-.751,40.429-1.1,60.4-1.436h.006c32.076-.542,65.24-1.1,96.93-3.324,17.077-1.2,32.3-2.767,46.545-4.8A403.773,403.773,0,0,0,764,94.406a403.027,403.027,0,0,0,54.87-18.758c17.29-7.208,33.616-15.028,49.4-22.591,19.85-9.508,38.594-18.487,56.9-25.115a202,202,0,0,1,27.176-7.928,129.124,129.124,0,0,1,26.865-2.958c2.943,0,5.9.118,8.781.35a128.721,128.721,0,0,1,27.083,5.33,213.9,213.9,0,0,1,27.3,10.526c18.279,8.375,37.085,19.307,55.272,29.88l.007,0c15.955,9.275,32.454,18.867,48.842,26.906,8.831,4.332,16.9,7.866,24.666,10.8A180.971,180.971,0,0,0,1196,108.405a155.072,155.072,0,0,0,17.4,2.837,167.376,167.376,0,0,0,17.472.9,190.644,190.644,0,0,0,19.767-1.06c6.4-.671,13.082-1.679,19.85-3a320.978,320.978,0,0,0,39.925-10.713c11.985-3.98,25.133-8.945,40.2-15.177,13.454-5.566,27.165-11.608,40.424-17.451l.087-.038c7.714-3.4,15.69-6.914,23.548-10.3,19.64-8.476,36.164-15.17,52-21.066,18.788-6.994,36.1-12.655,52.924-17.305C1558.625,5.245,1595.009,0,1630.826,0c5.709,0,11.486.137,17.173.406a201.83,201.83,0,0,1,30.109,3.845c9.571,1.906,19.642,4.478,30.789,7.863,20.733,6.3,41.4,14.236,63.276,22.641,48.177,18.51,97.994,37.65,147.827,37.65V785.863Z" transform="translate(4446 -2484.863)" fill="url(#linear-gradient)"/>
  </g>
</svg>
