<svg xmlns="http://www.w3.org/2000/svg" xmlns:xlink="http://www.w3.org/1999/xlink" width="138" height="138" viewBox="0 0 138 138">
  <defs>
    <linearGradient id="linear-gradient" x1="0.5" x2="0.5" y2="1" gradientUnits="objectBoundingBox">
      <stop offset="0" stop-color="#fdcd0b"/>
      <stop offset="1" stop-color="#ffb000"/>
    </linearGradient>
    <filter id="Ellipse_79" x="0" y="0" width="138" height="138" filterUnits="userSpaceOnUse">
      <feOffset input="SourceAlpha"/>
      <feGaussianBlur stdDeviation="10" result="blur"/>
      <feFlood flood-opacity="0.369"/>
      <feComposite operator="in" in2="blur"/>
      <feComposite in="SourceGraphic"/>
    </filter>
    <linearGradient id="linear-gradient-2" x1="0.5" x2="0.5" y2="1" gradientUnits="objectBoundingBox">
      <stop offset="0" stop-color="#fd7b01"/>
      <stop offset="1" stop-color="#ffc30b"/>
    </linearGradient>
    <linearGradient id="linear-gradient-8" x1="0.5" x2="0.5" y2="1" gradientUnits="objectBoundingBox">
      <stop offset="0" stop-color="#4f3000"/>
      <stop offset="1" stop-color="#a16200"/>
    </linearGradient>
  </defs>
  <g id="logo" transform="translate(-13385 354)">
    <g id="Group_16148" data-name="Group 16148" transform="translate(-725 1423)">
      <g transform="matrix(1, 0, 0, 1, 14110, -1777)" filter="url(#Ellipse_79)">
        <circle id="Ellipse_79-2" data-name="Ellipse 79" cx="39" cy="39" r="39" transform="translate(30 30)" fill="url(#linear-gradient)"/>
      </g>
      <path id="blob" d="M47.494,103.909a4.3,4.3,0,0,1-2.509,3.336,5.893,5.893,0,0,1-4.713.306,5.641,5.641,0,0,1-3.565-3.336,5,5,0,0,1,.275-4.743,4.436,4.436,0,0,1,3.565-2.4,13.639,13.639,0,0,1,4.177.291,3.234,3.234,0,0,1,2.509,2.4A9.838,9.838,0,0,1,47.494,103.909Z" transform="translate(14164.466 -1820.076)" fill="url(#linear-gradient-2)"/>
      <path id="blob-2" data-name="blob" d="M124.37,112.12a19.977,19.977,0,0,1-6.2,5.326,5.818,5.818,0,0,1-6.578-.349,12.021,12.021,0,0,1-4.366-5.326,13.493,13.493,0,0,1-.728-6.956,4.958,4.958,0,0,1,4.366-4.57,17.472,17.472,0,0,1,7.509.175,10.571,10.571,0,0,1,6.2,4.57A5.486,5.486,0,0,1,124.37,112.12Z" transform="translate(14055.971 -1792.938)" fill="url(#linear-gradient-2)"/>
      <path id="blob-3" data-name="blob" d="M114.312,95.944a28.923,28.923,0,0,1-4.282,4.41,3.688,3.688,0,0,1-4.969.16,6.048,6.048,0,0,1-2.792-4.41,18.954,18.954,0,0,1,.186-4.943,3.343,3.343,0,0,1,2.792-2.9,33.374,33.374,0,0,1,5.441-.685,4.077,4.077,0,0,1,4.282,2.9A5.2,5.2,0,0,1,114.312,95.944Z" transform="matrix(0.899, -0.438, 0.438, 0.899, 14046.406, -1742.477)" fill="url(#linear-gradient-2)"/>
      <path id="blob-4" data-name="blob" d="M96.644,51.513a9.03,9.03,0,0,1-3.938,5.514,6.862,6.862,0,0,1-7.089.608q-3.848-1.665-3.713-5.514a14.539,14.539,0,0,1,1.418-6.279,31.994,31.994,0,0,1,3.713-5.356q2.431-2.926,5.739-.878a7.96,7.96,0,0,1,3.938,5.356A16.31,16.31,0,0,1,96.644,51.513Z" transform="translate(14065.305 -1763.599)" fill="url(#linear-gradient-2)"/>
      <path id="blob-5" data-name="blob" d="M96.913,51.746A9.2,9.2,0,0,1,92.9,57.36a6.987,6.987,0,0,1-7.218.619q-3.919-1.7-3.781-5.614a14.8,14.8,0,0,1,1.444-6.393,32.578,32.578,0,0,1,3.781-5.454q2.475-2.979,5.843-.894a8.105,8.105,0,0,1,4.01,5.454A16.608,16.608,0,0,1,96.913,51.746Z" transform="matrix(0.848, 0.53, -0.53, 0.848, 14148.043, -1772.631)" fill="url(#linear-gradient-2)"/>
      <path id="blob-6" data-name="blob" d="M63.357,61.743A5.739,5.739,0,0,1,58.631,65.6a42.359,42.359,0,0,1-7.126.388,5.5,5.5,0,0,1-5.26-3.854,13.114,13.114,0,0,1-.509-8.023A6.416,6.416,0,0,1,51,48.92a10.8,10.8,0,0,1,7.635.9A10.04,10.04,0,0,1,63.357,55,8.7,8.7,0,0,1,63.357,61.743Z" transform="translate(14125.771 -1792.477)" fill="url(#linear-gradient-2)"/>
    </g>
    <path id="Path_1981" data-name="Path 1981" d="M27.2,17.5l.694-1.345a12.544,12.544,0,0,1,1.8-2.994,2.566,2.566,0,0,1,1.931-.738q3.558,0,3.558,8.026a20.352,20.352,0,0,1-.347,4.035,12.189,12.189,0,0,1-1.171,3.254,46.991,46.991,0,0,1-2.69,4.751q-1.692,2.668-3.84,5.64T22.559,44.1a59.053,59.053,0,0,1-7.332,8.07q-2.994,2.56-5.033,2.56-3.775,0-5.38-4.6A50.467,50.467,0,0,1,2.753,43.1,84.667,84.667,0,0,1,1.3,34.75a66.97,66.97,0,0,1-.521-8.178,37.2,37.2,0,0,1,.976-9.219q.976-3.753,2.668-4.924a6.373,6.373,0,0,1,3.211-.868,11.051,11.051,0,0,1,3.753.629,6.146,6.146,0,0,1,2.755,1.844,5.664,5.664,0,0,1,1.367,2.408A20.318,20.318,0,0,1,16.116,21q.152,3.059.152,8.439v11.28h.174q.824-1.866,1.345-2.863,1.388-2.733,5.38-11.541.824-1.866,3.124-6.942Z" transform="translate(13437.018 -316.164)" fill="url(#linear-gradient-8)"/>
  </g>
</svg>
